<?xml version="1.0" encoding="UTF-8" standalone="no"?>
<!-- This is a Stata 17.0 generated SVG file (http://www.stata.com) -->

<svg version="1.1" width="5.500in" height="4.000in" viewBox="0 0 3960 2880" xmlns="http://www.w3.org/2000/svg" xmlns:xlink="http://www.w3.org/1999/xlink">
	<desc>Stata Graph - Graph</desc>
	<rect x="0" y="0" width="3960" height="2880" style="fill:#EAF2F3;stroke:none"/>
	<rect x="0.00" y="0.00" width="3959.88" height="2880.00" style="fill:#FFFFFF"/>
	<rect x="2.88" y="2.88" width="3954.12" height="2874.24" style="fill:none;stroke:#EAF2F3;stroke-width:5.76"/>
	<rect x="100.86" y="100.86" width="3758.16" height="2678.28" style="fill:#FFFFFF"/>
	<rect x="103.74" y="103.74" width="3752.40" height="2672.52" style="fill:none;stroke:#FFFFFF;stroke-width:5.76"/>
	<rect x="330.78" y="100.86" width="3528.24" height="2398.35" style="fill:#FFFFFF"/>
	<rect x="333.66" y="103.74" width="3522.48" height="2392.59" style="fill:none;stroke:#FFFFFF;stroke-width:5.76"/>
	<line x1="330.78" y1="2435.85" x2="3859.02" y2="2435.85" style="stroke:#EAF2F3;stroke-width:8.64"/>
	<line x1="330.78" y1="1713.87" x2="3859.02" y2="1713.87" style="stroke:#EAF2F3;stroke-width:8.64"/>
	<line x1="330.78" y1="991.89" x2="3859.02" y2="991.89" style="stroke:#EAF2F3;stroke-width:8.64"/>
	<line x1="330.78" y1="269.91" x2="3859.02" y2="269.91" style="stroke:#EAF2F3;stroke-width:8.64"/>
	<line x1="771.83" y1="2103.94" x2="771.83" y2="1974.00" style="stroke:#0A7D94;stroke-width:8.64"/>
	<line x1="749.80" y1="1974.00" x2="793.86" y2="1974.00" stroke-linecap="round" style="stroke:#0A7D94;stroke-width:8.64"/>
	<line x1="749.80" y1="2103.94" x2="793.86" y2="2103.94" stroke-linecap="round" style="stroke:#0A7D94;stroke-width:8.64"/>
	<line x1="1653.92" y1="2171.51" x2="1653.92" y2="2036.25" style="stroke:#0A7D94;stroke-width:8.64"/>
	<line x1="1631.89" y1="2036.25" x2="1675.95" y2="2036.25" stroke-linecap="round" style="stroke:#0A7D94;stroke-width:8.64"/>
	<line x1="1631.89" y1="2171.51" x2="1675.95" y2="2171.51" stroke-linecap="round" style="stroke:#0A7D94;stroke-width:8.64"/>
	<line x1="2536.01" y1="1547.91" x2="2536.01" y2="164.22" style="stroke:#0A7D94;stroke-width:8.64"/>
	<line x1="2513.98" y1="164.22" x2="2558.04" y2="164.22" stroke-linecap="round" style="stroke:#0A7D94;stroke-width:8.64"/>
	<line x1="2513.98" y1="1547.91" x2="2558.04" y2="1547.91" stroke-linecap="round" style="stroke:#0A7D94;stroke-width:8.64"/>
	<line x1="3418.10" y1="1817.70" x2="3418.10" y2="1134.08" style="stroke:#0A7D94;stroke-width:8.64"/>
	<line x1="3396.07" y1="1134.08" x2="3440.13" y2="1134.08" stroke-linecap="round" style="stroke:#0A7D94;stroke-width:8.64"/>
	<line x1="3396.07" y1="1817.70" x2="3440.13" y2="1817.70" stroke-linecap="round" style="stroke:#0A7D94;stroke-width:8.64"/>
	<circle cx="771.71" cy="2039.09" r="26.35" style="fill:#0A7D94"/>
	<circle cx="771.71" cy="2039.09" r="22.03" style="fill:none;stroke:#0A7D94;stroke-width:8.64"/>
	<circle cx="1653.80" cy="2103.94" r="26.35" style="fill:#0A7D94"/>
	<circle cx="1653.80" cy="2103.94" r="22.03" style="fill:none;stroke:#0A7D94;stroke-width:8.64"/>
	<circle cx="2535.89" cy="856.13" r="26.35" style="fill:#0A7D94"/>
	<circle cx="2535.89" cy="856.13" r="22.03" style="fill:none;stroke:#0A7D94;stroke-width:8.64"/>
	<circle cx="3417.98" cy="1475.89" r="26.35" style="fill:#0A7D94"/>
	<circle cx="3417.98" cy="1475.89" r="22.03" style="fill:none;stroke:#0A7D94;stroke-width:8.64"/>
	<line x1="330.78" y1="2499.21" x2="330.78" y2="100.86" style="stroke:#000000;stroke-width:5.76"/>
	<line x1="330.78" y1="2435.85" x2="290.81" y2="2435.85" style="stroke:#000000;stroke-width:5.76"/>
	<text x="252.70" y="2435.85" style="font-family:'Helvetica';font-size:60.02px;fill:#000000" transform="rotate(-90 252.70,2435.85)" text-anchor="middle">100</text>
	<line x1="330.78" y1="1713.87" x2="290.81" y2="1713.87" style="stroke:#000000;stroke-width:5.76"/>
	<text x="252.70" y="1713.87" style="font-family:'Helvetica';font-size:60.02px;fill:#000000" transform="rotate(-90 252.70,1713.87)" text-anchor="middle">150</text>
	<line x1="330.78" y1="991.89" x2="290.81" y2="991.89" style="stroke:#000000;stroke-width:5.76"/>
	<text x="252.70" y="991.89" style="font-family:'Helvetica';font-size:60.02px;fill:#000000" transform="rotate(-90 252.70,991.89)" text-anchor="middle">200</text>
	<line x1="330.78" y1="269.91" x2="290.81" y2="269.91" style="stroke:#000000;stroke-width:5.76"/>
	<text x="252.70" y="269.91" style="font-family:'Helvetica';font-size:60.02px;fill:#000000" transform="rotate(-90 252.70,269.91)" text-anchor="middle">250</text>
	<text x="176.68" y="1300.03" style="font-family:'Helvetica';font-size:79.94px;fill:#000000" transform="rotate(-90 176.68,1300.03)" text-anchor="middle">Linear Prediction: Response Time</text>
	<text x="1212.87" y="2725.15" style="font-family:'Helvetica';font-size:79.94px;fill:#000000" text-anchor="middle">static calendar</text>
	<text x="2977.05" y="2725.15" style="font-family:'Helvetica';font-size:79.94px;fill:#000000" text-anchor="middle">dynamic calendar</text>
	<line x1="330.78" y1="2499.21" x2="3859.02" y2="2499.21" style="stroke:#5F5F5F;stroke-width:5.76"/>
	<line x1="771.83" y1="2499.21" x2="771.83" y2="2539.18" style="stroke:#000000;stroke-width:5.76"/>
	<text x="771.83" y="2601.18" style="font-family:'Helvetica';font-size:60.02px;fill:#000000" text-anchor="middle">non-mobile</text>
	<line x1="1653.92" y1="2499.21" x2="1653.92" y2="2539.18" style="stroke:#000000;stroke-width:5.76"/>
	<text x="1653.92" y="2601.18" style="font-family:'Helvetica';font-size:60.02px;fill:#000000" text-anchor="middle">mobile</text>
	<line x1="2536.01" y1="2499.21" x2="2536.01" y2="2539.18" style="stroke:#000000;stroke-width:5.76"/>
	<text x="2536.01" y="2601.18" style="font-family:'Helvetica';font-size:60.02px;fill:#000000" text-anchor="middle">non-mobile</text>
	<line x1="3418.10" y1="2499.21" x2="3418.10" y2="2539.18" style="stroke:#000000;stroke-width:5.76"/>
	<text x="3418.10" y="2601.18" style="font-family:'Helvetica';font-size:60.02px;fill:#000000" text-anchor="middle">mobile</text>
</svg>
