<?xml version="1.0" encoding="UTF-8" standalone="no"?>
<!-- This is a Stata 17.0 generated SVG file (http://www.stata.com) -->

<svg version="1.1" width="5.500in" height="4.000in" viewBox="0 0 3960 2880" xmlns="http://www.w3.org/2000/svg" xmlns:xlink="http://www.w3.org/1999/xlink">
	<desc>Stata Graph - Graph</desc>
	<rect x="0" y="0" width="3960" height="2880" style="fill:#FFFFFF;stroke:none"/>
	<rect x="0.00" y="0.00" width="3959.88" height="2880.00" style="fill:#FFFFFF"/>
	<rect x="2.88" y="2.88" width="3954.12" height="2874.24" style="fill:none;stroke:#FFFFFF;stroke-width:5.76"/>
	<rect x="597.19" y="235.11" width="1345.71" height="2096.20" style="fill:none;stroke:#000000;stroke-width:4.90"/>
	<line x1="680.50" y1="2333.75" x2="680.50" y2="232.66" style="stroke:#E0E0E0;stroke-width:7.34"/>
	<line x1="951.64" y1="2333.75" x2="951.64" y2="232.66" style="stroke:#E0E0E0;stroke-width:7.34"/>
	<line x1="1222.65" y1="2333.75" x2="1222.65" y2="232.66" style="stroke:#E0E0E0;stroke-width:7.34"/>
	<line x1="1493.79" y1="2333.75" x2="1493.79" y2="232.66" style="stroke:#E0E0E0;stroke-width:7.34"/>
	<line x1="1764.92" y1="2333.75" x2="1764.92" y2="232.66" style="stroke:#E0E0E0;stroke-width:7.34"/>
	<rect x="2476.33" y="235.11" width="1345.71" height="2096.20" style="fill:none;stroke:#000000;stroke-width:4.90"/>
	<line x1="2559.65" y1="2333.75" x2="2559.65" y2="232.66" style="stroke:#E0E0E0;stroke-width:7.34"/>
	<line x1="2830.78" y1="2333.75" x2="2830.78" y2="232.66" style="stroke:#E0E0E0;stroke-width:7.34"/>
	<line x1="3101.79" y1="2333.75" x2="3101.79" y2="232.66" style="stroke:#E0E0E0;stroke-width:7.34"/>
	<line x1="3372.93" y1="2333.75" x2="3372.93" y2="232.66" style="stroke:#E0E0E0;stroke-width:7.34"/>
	<line x1="3644.07" y1="2333.75" x2="3644.07" y2="232.66" style="stroke:#E0E0E0;stroke-width:7.34"/>
	<rect x="971.81" y="1566.97" width="294.40" height="567.66" style="fill:#0A7D94"/>
	<rect x="973.64" y="1568.81" width="290.73" height="563.99" style="fill:none;stroke:#000000;stroke-width:3.67"/>
	<line x1="1095.93" y1="2134.63" x2="1095.93" y2="1566.97" style="stroke:#000000;stroke-width:3.67"/>
	<line x1="971.81" y1="1850.86" x2="709.95" y2="1850.86" style="stroke:#000000;stroke-width:3.67"/>
	<line x1="1266.21" y1="1850.86" x2="1707.75" y2="1850.86" style="stroke:#000000;stroke-width:3.67"/>
	<line x1="709.95" y1="2040.95" x2="709.95" y2="1660.65" style="stroke:#000000;stroke-width:3.67"/>
	<line x1="1707.75" y1="2040.95" x2="1707.75" y2="1660.65" style="stroke:#000000;stroke-width:3.67"/>
	<rect x="1038.88" y="431.90" width="296.75" height="567.54" style="fill:#0A7D94"/>
	<rect x="1040.72" y="433.74" width="293.08" height="563.86" style="fill:none;stroke:#000000;stroke-width:3.67"/>
	<line x1="1154.96" y1="999.44" x2="1154.96" y2="431.90" style="stroke:#000000;stroke-width:3.67"/>
	<line x1="1038.88" y1="715.67" x2="721.83" y2="715.67" style="stroke:#000000;stroke-width:3.67"/>
	<line x1="1335.63" y1="715.67" x2="1780.52" y2="715.67" style="stroke:#000000;stroke-width:3.67"/>
	<line x1="721.83" y1="905.88" x2="721.83" y2="525.58" style="stroke:#000000;stroke-width:3.67"/>
	<line x1="1780.52" y1="905.88" x2="1780.52" y2="525.58" style="stroke:#000000;stroke-width:3.67"/>
	<rect x="2847.74" y="1566.97" width="356.77" height="567.66" style="fill:#0A7D94"/>
	<rect x="2849.57" y="1568.81" width="353.10" height="563.99" style="fill:none;stroke:#000000;stroke-width:3.67"/>
	<line x1="2995.62" y1="2134.63" x2="2995.62" y2="1566.97" style="stroke:#000000;stroke-width:3.67"/>
	<line x1="2847.74" y1="1850.86" x2="2578.33" y2="1850.86" style="stroke:#000000;stroke-width:3.67"/>
	<line x1="3204.51" y1="1850.86" x2="3738.86" y2="1850.86" style="stroke:#000000;stroke-width:3.67"/>
	<line x1="2578.33" y1="2040.95" x2="2578.33" y2="1660.65" style="stroke:#000000;stroke-width:3.67"/>
	<line x1="3738.86" y1="2040.95" x2="3738.86" y2="1660.65" style="stroke:#000000;stroke-width:3.67"/>
	<rect x="2856.40" y="431.90" width="207.28" height="567.54" style="fill:#0A7D94"/>
	<rect x="2858.23" y="433.74" width="203.61" height="563.86" style="fill:none;stroke:#000000;stroke-width:3.67"/>
	<line x1="2933.25" y1="999.44" x2="2933.25" y2="431.90" style="stroke:#000000;stroke-width:3.67"/>
	<line x1="2856.40" y1="715.67" x2="2628.33" y2="715.67" style="stroke:#000000;stroke-width:3.67"/>
	<line x1="3063.68" y1="715.67" x2="3374.54" y2="715.67" style="stroke:#000000;stroke-width:3.67"/>
	<line x1="2628.33" y1="905.88" x2="2628.33" y2="525.58" style="stroke:#000000;stroke-width:3.67"/>
	<line x1="3374.54" y1="905.88" x2="3374.54" y2="525.58" style="stroke:#000000;stroke-width:3.67"/>
	<line x1="594.74" y1="2333.75" x2="1945.35" y2="2333.75" style="stroke:#000000;stroke-width:4.90"/>
	<line x1="680.50" y1="2333.75" x2="680.50" y2="2367.78" style="stroke:#000000;stroke-width:4.90"/>
	<text x="680.50" y="2420.37" style="font-family:'Helvetica';font-size:50.99px;fill:#000000" text-anchor="middle">0</text>
	<line x1="951.64" y1="2333.75" x2="951.64" y2="2367.78" style="stroke:#000000;stroke-width:4.90"/>
	<text x="951.64" y="2420.37" style="font-family:'Helvetica';font-size:50.99px;fill:#000000" text-anchor="middle">10</text>
	<line x1="1222.65" y1="2333.75" x2="1222.65" y2="2367.78" style="stroke:#000000;stroke-width:4.90"/>
	<text x="1222.65" y="2420.37" style="font-family:'Helvetica';font-size:50.99px;fill:#000000" text-anchor="middle">20</text>
	<line x1="1493.79" y1="2333.75" x2="1493.79" y2="2367.78" style="stroke:#000000;stroke-width:4.90"/>
	<text x="1493.79" y="2420.37" style="font-family:'Helvetica';font-size:50.99px;fill:#000000" text-anchor="middle">30</text>
	<line x1="1764.92" y1="2333.75" x2="1764.92" y2="2367.78" style="stroke:#000000;stroke-width:4.90"/>
	<text x="1764.92" y="2420.37" style="font-family:'Helvetica';font-size:50.99px;fill:#000000" text-anchor="middle">40</text>
	<line x1="2473.89" y1="2333.75" x2="3824.49" y2="2333.75" style="stroke:#000000;stroke-width:4.90"/>
	<line x1="2559.65" y1="2333.75" x2="2559.65" y2="2367.78" style="stroke:#000000;stroke-width:4.90"/>
	<text x="2559.65" y="2420.37" style="font-family:'Helvetica';font-size:50.99px;fill:#000000" text-anchor="middle">0</text>
	<line x1="2830.78" y1="2333.75" x2="2830.78" y2="2367.78" style="stroke:#000000;stroke-width:4.90"/>
	<text x="2830.78" y="2420.37" style="font-family:'Helvetica';font-size:50.99px;fill:#000000" text-anchor="middle">10</text>
	<line x1="3101.79" y1="2333.75" x2="3101.79" y2="2367.78" style="stroke:#000000;stroke-width:4.90"/>
	<text x="3101.79" y="2420.37" style="font-family:'Helvetica';font-size:50.99px;fill:#000000" text-anchor="middle">20</text>
	<line x1="3372.93" y1="2333.75" x2="3372.93" y2="2367.78" style="stroke:#000000;stroke-width:4.90"/>
	<text x="3372.93" y="2420.37" style="font-family:'Helvetica';font-size:50.99px;fill:#000000" text-anchor="middle">30</text>
	<line x1="3644.07" y1="2333.75" x2="3644.07" y2="2367.78" style="stroke:#000000;stroke-width:4.90"/>
	<text x="3644.07" y="2420.37" style="font-family:'Helvetica';font-size:50.99px;fill:#000000" text-anchor="middle">40</text>
	<line x1="594.74" y1="2333.75" x2="594.74" y2="232.66" style="stroke:#000000;stroke-width:4.90"/>
	<text x="560.84" y="1874.67" style="font-family:'Helvetica';font-size:67.94px;fill:#000000" text-anchor="end">episodes</text>
	<text x="560.84" y="739.48" style="font-family:'Helvetica';font-size:67.94px;fill:#000000" text-anchor="end">conventional</text>
	<line x1="2473.89" y1="2333.75" x2="2473.89" y2="232.66" style="stroke:#000000;stroke-width:4.90"/>
	<text x="2439.98" y="1874.67" style="font-family:'Helvetica';font-size:67.94px;fill:#000000" text-anchor="end">episodes</text>
	<text x="2439.98" y="739.48" style="font-family:'Helvetica';font-size:67.94px;fill:#000000" text-anchor="end">conventional</text>
	<text x="609.47" y="2515.03" style="font-family:'Helvetica';font-size:67.94px;fill:#000000">excludes outside values</text>
	<text x="2488.61" y="2515.03" style="font-family:'Helvetica';font-size:67.94px;fill:#000000">excludes outside values</text>
	<text x="1270.05" y="197.61" style="font-family:'Helvetica';font-size:67.94px;fill:#000000" text-anchor="middle">static calendar</text>
	<text x="3149.19" y="197.61" style="font-family:'Helvetica';font-size:67.94px;fill:#000000" text-anchor="middle">dynamic calendar</text>
	<text x="1980.00" y="2640.62" style="font-family:'Helvetica';font-size:79.94px;fill:#000000" text-anchor="middle">Response Time (Minutes)</text>
	<text x="118.06" y="2737.89" style="font-family:'Helvetica';font-size:79.94px;fill:#000000">Graphs by calendar type</text>
</svg>
