<?xml version="1.0" encoding="UTF-8" standalone="no"?>
<!-- This is a Stata 17.0 generated SVG file (http://www.stata.com) -->

<svg version="1.1" width="5.500in" height="4.000in" viewBox="0 0 3960 2880" xmlns="http://www.w3.org/2000/svg" xmlns:xlink="http://www.w3.org/1999/xlink">
	<desc>Stata Graph - Graph</desc>
	<rect x="0" y="0" width="3960" height="2880" style="fill:#FFFFFF;stroke:none"/>
	<rect x="0.00" y="0.00" width="3959.88" height="2880.00" style="fill:#FFFFFF"/>
	<rect x="2.88" y="2.88" width="3954.12" height="2874.24" style="fill:none;stroke:#FFFFFF;stroke-width:5.76"/>
	<rect x="1558.54" y="103.74" width="2297.60" height="2328.11" style="fill:none;stroke:#000000;stroke-width:5.76"/>
	<line x1="1656.52" y1="2434.73" x2="1656.52" y2="100.86" style="stroke:#E0E0E0;stroke-width:8.64"/>
	<line x1="2337.27" y1="2434.73" x2="2337.27" y2="100.86" style="stroke:#E0E0E0;stroke-width:8.64"/>
	<line x1="3018.14" y1="2434.73" x2="3018.14" y2="100.86" style="stroke:#E0E0E0;stroke-width:8.64"/>
	<line x1="3698.89" y1="2434.73" x2="3698.89" y2="100.86" style="stroke:#E0E0E0;stroke-width:8.64"/>
	<rect x="2044.23" y="1988.11" width="597.71" height="288.10" style="fill:#0A7D94"/>
	<rect x="2046.39" y="1990.27" width="593.39" height="283.78" style="fill:none;stroke:#000000;stroke-width:4.32"/>
	<line x1="2250.27" y1="2276.20" x2="2250.27" y2="1988.11" style="stroke:#000000;stroke-width:4.32"/>
	<line x1="2044.23" y1="2132.16" x2="1680.03" y2="2132.16" style="stroke:#000000;stroke-width:4.32"/>
	<line x1="2641.94" y1="2132.16" x2="3538.63" y2="2132.16" style="stroke:#000000;stroke-width:4.32"/>
	<line x1="1680.03" y1="2228.68" x2="1680.03" y2="2035.63" style="stroke:#000000;stroke-width:4.32"/>
	<line x1="3538.63" y1="2228.68" x2="3538.63" y2="2035.63" style="stroke:#000000;stroke-width:4.32"/>
	<rect x="2045.09" y="1411.78" width="581.38" height="288.22" style="fill:#0A7D94"/>
	<rect x="2047.25" y="1413.94" width="577.06" height="283.90" style="fill:none;stroke:#000000;stroke-width:4.32"/>
	<line x1="2176.64" y1="1700.01" x2="2176.64" y2="1411.78" style="stroke:#000000;stroke-width:4.32"/>
	<line x1="2045.09" y1="1555.83" x2="1723.71" y2="1555.83" style="stroke:#000000;stroke-width:4.32"/>
	<line x1="2626.47" y1="1555.83" x2="3494.45" y2="1555.83" style="stroke:#000000;stroke-width:4.32"/>
	<line x1="1723.71" y1="1652.36" x2="1723.71" y2="1459.31" style="stroke:#000000;stroke-width:4.32"/>
	<line x1="3494.45" y1="1652.36" x2="3494.45" y2="1459.31" style="stroke:#000000;stroke-width:4.32"/>
	<rect x="2021.70" y="835.59" width="458.87" height="288.10" style="fill:#0A7D94"/>
	<rect x="2023.86" y="837.75" width="454.55" height="283.78" style="fill:none;stroke:#000000;stroke-width:4.32"/>
	<line x1="2198.54" y1="1123.69" x2="2198.54" y2="835.59" style="stroke:#000000;stroke-width:4.32"/>
	<line x1="2021.70" y1="979.64" x2="1664.44" y2="979.64" style="stroke:#000000;stroke-width:4.32"/>
	<line x1="2480.57" y1="979.64" x2="3168.74" y2="979.64" style="stroke:#000000;stroke-width:4.32"/>
	<line x1="1664.44" y1="1076.16" x2="1664.44" y2="883.11" style="stroke:#000000;stroke-width:4.32"/>
	<line x1="3168.74" y1="1076.16" x2="3168.74" y2="883.11" style="stroke:#000000;stroke-width:4.32"/>
	<rect x="2130.23" y="259.26" width="651.54" height="288.10" style="fill:#0A7D94"/>
	<rect x="2132.39" y="261.42" width="647.22" height="283.78" style="fill:none;stroke:#000000;stroke-width:4.32"/>
	<line x1="2317.09" y1="547.36" x2="2317.09" y2="259.26" style="stroke:#000000;stroke-width:4.32"/>
	<line x1="2130.23" y1="403.31" x2="1708.49" y2="403.31" style="stroke:#000000;stroke-width:4.32"/>
	<line x1="2781.78" y1="403.31" x2="3758.29" y2="403.31" style="stroke:#000000;stroke-width:4.32"/>
	<line x1="1708.49" y1="499.84" x2="1708.49" y2="306.79" style="stroke:#000000;stroke-width:4.32"/>
	<line x1="3758.29" y1="499.84" x2="3758.29" y2="306.79" style="stroke:#000000;stroke-width:4.32"/>
	<line x1="1555.66" y1="2434.73" x2="3859.02" y2="2434.73" style="stroke:#000000;stroke-width:5.76"/>
	<line x1="1656.52" y1="2434.73" x2="1656.52" y2="2474.71" style="stroke:#000000;stroke-width:5.76"/>
	<text x="1656.52" y="2536.58" style="font-family:'Helvetica';font-size:60.02px;fill:#000000" text-anchor="middle">0</text>
	<line x1="2337.27" y1="2434.73" x2="2337.27" y2="2474.71" style="stroke:#000000;stroke-width:5.76"/>
	<text x="2337.27" y="2536.58" style="font-family:'Helvetica';font-size:60.02px;fill:#000000" text-anchor="middle">20</text>
	<line x1="3018.14" y1="2434.73" x2="3018.14" y2="2474.71" style="stroke:#000000;stroke-width:5.76"/>
	<text x="3018.14" y="2536.58" style="font-family:'Helvetica';font-size:60.02px;fill:#000000" text-anchor="middle">40</text>
	<line x1="3698.89" y1="2434.73" x2="3698.89" y2="2474.71" style="stroke:#000000;stroke-width:5.76"/>
	<text x="3698.89" y="2536.58" style="font-family:'Helvetica';font-size:60.02px;fill:#000000" text-anchor="middle">60</text>
	<text x="2707.40" y="2620.57" style="font-family:'Helvetica';font-size:79.94px;fill:#000000" text-anchor="middle">Response Time (Minutes)</text>
	<line x1="1555.66" y1="2434.73" x2="1555.66" y2="100.86" style="stroke:#000000;stroke-width:5.76"/>
	<text x="1515.69" y="2160.17" style="font-family:'Helvetica';font-size:79.94px;fill:#000000" text-anchor="end">04, episodes (n=4999, pages: 196)</text>
	<text x="1515.69" y="1583.85" style="font-family:'Helvetica';font-size:79.94px;fill:#000000" text-anchor="end">04, conventional (n=4999, pages: 69)</text>
	<text x="1515.69" y="1007.65" style="font-family:'Helvetica';font-size:79.94px;fill:#000000" text-anchor="end">03, episodes (n=6066, pages: 690)</text>
	<text x="1515.69" y="431.33" style="font-family:'Helvetica';font-size:79.94px;fill:#000000" text-anchor="end">03, conventional (n=6066, pages: 89)</text>
	<text x="1572.99" y="2737.89" style="font-family:'Helvetica';font-size:79.94px;fill:#000000">excludes outside values</text>
</svg>
