<?xml version="1.0" encoding="UTF-8" standalone="no"?>
<!-- This is a Stata 17.0 generated SVG file (http://www.stata.com) -->

<svg version="1.1" width="5.500in" height="4.000in" viewBox="0 0 3960 2880" xmlns="http://www.w3.org/2000/svg" xmlns:xlink="http://www.w3.org/1999/xlink">
	<desc>Stata Graph - Graph</desc>
	<rect x="0" y="0" width="3960" height="2880" style="fill:#FFFFFF;stroke:none"/>
	<rect x="0.00" y="0.00" width="3959.88" height="2880.00" style="fill:#FFFFFF"/>
	<rect x="2.88" y="2.88" width="3954.12" height="2874.24" style="fill:none;stroke:#FFFFFF;stroke-width:5.76"/>
	<rect x="463.91" y="235.11" width="1478.99" height="2096.20" style="fill:none;stroke:#000000;stroke-width:4.90"/>
	<line x1="547.22" y1="2333.75" x2="547.22" y2="232.66" style="stroke:#E0E0E0;stroke-width:7.34"/>
	<line x1="809.70" y1="2333.75" x2="809.70" y2="232.66" style="stroke:#E0E0E0;stroke-width:7.34"/>
	<line x1="1072.17" y1="2333.75" x2="1072.17" y2="232.66" style="stroke:#E0E0E0;stroke-width:7.34"/>
	<line x1="1334.64" y1="2333.75" x2="1334.64" y2="232.66" style="stroke:#E0E0E0;stroke-width:7.34"/>
	<line x1="1597.24" y1="2333.75" x2="1597.24" y2="232.66" style="stroke:#E0E0E0;stroke-width:7.34"/>
	<line x1="1859.72" y1="2333.75" x2="1859.72" y2="232.66" style="stroke:#E0E0E0;stroke-width:7.34"/>
	<rect x="2343.06" y="235.11" width="1478.99" height="2096.20" style="fill:none;stroke:#000000;stroke-width:4.90"/>
	<line x1="2426.37" y1="2333.75" x2="2426.37" y2="232.66" style="stroke:#E0E0E0;stroke-width:7.34"/>
	<line x1="2688.84" y1="2333.75" x2="2688.84" y2="232.66" style="stroke:#E0E0E0;stroke-width:7.34"/>
	<line x1="2951.31" y1="2333.75" x2="2951.31" y2="232.66" style="stroke:#E0E0E0;stroke-width:7.34"/>
	<line x1="3213.79" y1="2333.75" x2="3213.79" y2="232.66" style="stroke:#E0E0E0;stroke-width:7.34"/>
	<line x1="3476.39" y1="2333.75" x2="3476.39" y2="232.66" style="stroke:#E0E0E0;stroke-width:7.34"/>
	<line x1="3738.86" y1="2333.75" x2="3738.86" y2="232.66" style="stroke:#E0E0E0;stroke-width:7.34"/>
	<rect x="718.99" y="1566.97" width="231.91" height="567.66" style="fill:#0A7D94"/>
	<rect x="720.82" y="1568.81" width="228.24" height="563.99" style="fill:none;stroke:#000000;stroke-width:3.67"/>
	<line x1="821.82" y1="2134.63" x2="821.82" y2="1566.97" style="stroke:#000000;stroke-width:3.67"/>
	<line x1="718.99" y1="1850.86" x2="552.54" y2="1850.86" style="stroke:#000000;stroke-width:3.67"/>
	<line x1="950.90" y1="1850.86" x2="1297.40" y2="1850.86" style="stroke:#000000;stroke-width:3.67"/>
	<line x1="552.54" y1="2040.95" x2="552.54" y2="1660.65" style="stroke:#000000;stroke-width:3.67"/>
	<line x1="1297.40" y1="2040.95" x2="1297.40" y2="1660.65" style="stroke:#000000;stroke-width:3.67"/>
	<rect x="731.36" y="431.90" width="209.88" height="567.54" style="fill:#0A7D94"/>
	<rect x="733.20" y="433.74" width="206.21" height="563.86" style="fill:none;stroke:#000000;stroke-width:3.67"/>
	<line x1="818.98" y1="999.44" x2="818.98" y2="431.90" style="stroke:#000000;stroke-width:3.67"/>
	<line x1="731.36" y1="715.67" x2="552.17" y2="715.67" style="stroke:#000000;stroke-width:3.67"/>
	<line x1="941.24" y1="715.67" x2="1253.22" y2="715.67" style="stroke:#000000;stroke-width:3.67"/>
	<line x1="552.17" y1="905.88" x2="552.17" y2="525.58" style="stroke:#000000;stroke-width:3.67"/>
	<line x1="1253.22" y1="905.88" x2="1253.22" y2="525.58" style="stroke:#000000;stroke-width:3.67"/>
	<rect x="2616.32" y="1566.97" width="395.63" height="567.66" style="fill:#0A7D94"/>
	<rect x="2618.16" y="1568.81" width="391.96" height="563.99" style="fill:none;stroke:#000000;stroke-width:3.67"/>
	<line x1="2741.93" y1="2134.63" x2="2741.93" y2="1566.97" style="stroke:#000000;stroke-width:3.67"/>
	<line x1="2616.32" y1="1850.86" x2="2433.42" y2="1850.86" style="stroke:#000000;stroke-width:3.67"/>
	<line x1="3011.95" y1="1850.86" x2="3567.84" y2="1850.86" style="stroke:#000000;stroke-width:3.67"/>
	<line x1="2433.42" y1="2040.95" x2="2433.42" y2="1660.65" style="stroke:#000000;stroke-width:3.67"/>
	<line x1="3567.84" y1="2040.95" x2="3567.84" y2="1660.65" style="stroke:#000000;stroke-width:3.67"/>
	<rect x="2666.19" y="431.90" width="435.23" height="567.54" style="fill:#0A7D94"/>
	<rect x="2668.03" y="433.74" width="431.56" height="563.86" style="fill:none;stroke:#000000;stroke-width:3.67"/>
	<line x1="2798.11" y1="999.44" x2="2798.11" y2="431.90" style="stroke:#000000;stroke-width:3.67"/>
	<line x1="2666.19" y1="715.67" x2="2437.75" y2="715.67" style="stroke:#000000;stroke-width:3.67"/>
	<line x1="3101.42" y1="715.67" x2="3670.43" y2="715.67" style="stroke:#000000;stroke-width:3.67"/>
	<line x1="2437.75" y1="905.88" x2="2437.75" y2="525.58" style="stroke:#000000;stroke-width:3.67"/>
	<line x1="3670.43" y1="905.88" x2="3670.43" y2="525.58" style="stroke:#000000;stroke-width:3.67"/>
	<line x1="461.46" y1="2333.75" x2="1945.35" y2="2333.75" style="stroke:#000000;stroke-width:4.90"/>
	<line x1="547.22" y1="2333.75" x2="547.22" y2="2367.78" style="stroke:#000000;stroke-width:4.90"/>
	<text x="547.22" y="2420.37" style="font-family:'Helvetica';font-size:50.99px;fill:#000000" text-anchor="middle">0</text>
	<line x1="809.70" y1="2333.75" x2="809.70" y2="2367.78" style="stroke:#000000;stroke-width:4.90"/>
	<text x="809.70" y="2420.37" style="font-family:'Helvetica';font-size:50.99px;fill:#000000" text-anchor="middle">100</text>
	<line x1="1072.17" y1="2333.75" x2="1072.17" y2="2367.78" style="stroke:#000000;stroke-width:4.90"/>
	<text x="1072.17" y="2420.37" style="font-family:'Helvetica';font-size:50.99px;fill:#000000" text-anchor="middle">200</text>
	<line x1="1334.64" y1="2333.75" x2="1334.64" y2="2367.78" style="stroke:#000000;stroke-width:4.90"/>
	<text x="1334.64" y="2420.37" style="font-family:'Helvetica';font-size:50.99px;fill:#000000" text-anchor="middle">300</text>
	<line x1="1597.24" y1="2333.75" x2="1597.24" y2="2367.78" style="stroke:#000000;stroke-width:4.90"/>
	<text x="1597.24" y="2420.37" style="font-family:'Helvetica';font-size:50.99px;fill:#000000" text-anchor="middle">400</text>
	<line x1="1859.72" y1="2333.75" x2="1859.72" y2="2367.78" style="stroke:#000000;stroke-width:4.90"/>
	<text x="1859.72" y="2420.37" style="font-family:'Helvetica';font-size:50.99px;fill:#000000" text-anchor="middle">500</text>
	<line x1="2340.61" y1="2333.75" x2="3824.49" y2="2333.75" style="stroke:#000000;stroke-width:4.90"/>
	<line x1="2426.37" y1="2333.75" x2="2426.37" y2="2367.78" style="stroke:#000000;stroke-width:4.90"/>
	<text x="2426.37" y="2420.37" style="font-family:'Helvetica';font-size:50.99px;fill:#000000" text-anchor="middle">0</text>
	<line x1="2688.84" y1="2333.75" x2="2688.84" y2="2367.78" style="stroke:#000000;stroke-width:4.90"/>
	<text x="2688.84" y="2420.37" style="font-family:'Helvetica';font-size:50.99px;fill:#000000" text-anchor="middle">100</text>
	<line x1="2951.31" y1="2333.75" x2="2951.31" y2="2367.78" style="stroke:#000000;stroke-width:4.90"/>
	<text x="2951.31" y="2420.37" style="font-family:'Helvetica';font-size:50.99px;fill:#000000" text-anchor="middle">200</text>
	<line x1="3213.79" y1="2333.75" x2="3213.79" y2="2367.78" style="stroke:#000000;stroke-width:4.90"/>
	<text x="3213.79" y="2420.37" style="font-family:'Helvetica';font-size:50.99px;fill:#000000" text-anchor="middle">300</text>
	<line x1="3476.39" y1="2333.75" x2="3476.39" y2="2367.78" style="stroke:#000000;stroke-width:4.90"/>
	<text x="3476.39" y="2420.37" style="font-family:'Helvetica';font-size:50.99px;fill:#000000" text-anchor="middle">400</text>
	<line x1="3738.86" y1="2333.75" x2="3738.86" y2="2367.78" style="stroke:#000000;stroke-width:4.90"/>
	<text x="3738.86" y="2420.37" style="font-family:'Helvetica';font-size:50.99px;fill:#000000" text-anchor="middle">500</text>
	<line x1="461.46" y1="2333.75" x2="461.46" y2="232.66" style="stroke:#000000;stroke-width:4.90"/>
	<text x="427.56" y="1868.74" style="font-family:'Helvetica';font-size:50.99px;fill:#000000" text-anchor="end">mobile</text>
	<text x="427.56" y="733.54" style="font-family:'Helvetica';font-size:50.99px;fill:#000000" text-anchor="end">non-mobile</text>
	<line x1="2340.61" y1="2333.75" x2="2340.61" y2="232.66" style="stroke:#000000;stroke-width:4.90"/>
	<text x="2306.70" y="1868.74" style="font-family:'Helvetica';font-size:50.99px;fill:#000000" text-anchor="end">mobile</text>
	<text x="2306.70" y="733.54" style="font-family:'Helvetica';font-size:50.99px;fill:#000000" text-anchor="end">non-mobile</text>
	<text x="476.19" y="2515.03" style="font-family:'Helvetica';font-size:67.94px;fill:#000000">excludes outside values</text>
	<text x="2355.33" y="2515.03" style="font-family:'Helvetica';font-size:67.94px;fill:#000000">excludes outside values</text>
	<text x="1203.47" y="197.61" style="font-family:'Helvetica';font-size:67.94px;fill:#000000" text-anchor="middle">static calendar</text>
	<text x="3082.61" y="197.61" style="font-family:'Helvetica';font-size:67.94px;fill:#000000" text-anchor="middle">dynamic calendar</text>
	<text x="1979.88" y="2640.62" style="font-family:'Helvetica';font-size:79.94px;fill:#000000" text-anchor="middle">response time of calendar page (minutes)</text>
	<text x="118.06" y="2737.89" style="font-family:'Helvetica';font-size:79.94px;fill:#000000">Graphs by wave</text>
</svg>
